<svg display="none"  xmlns="http://www.w3.org/2000/svg" xmlns:xlink="http://www.w3.org/1999/xlink">
    <symbol id="search" viewBox="0 0 19 19">
        <path d="M19 17L13.846 11.846C14.7988 10.3979 15.1805 8.64774 14.917 6.93442C14.6536 5.22111 13.7638 3.66648 12.4199 2.57154C11.076 1.47659 9.37369 0.919227 7.64247 1.00735C5.91125 1.09547 4.27431 1.82281 3.04857 3.04855C1.82283 4.27429 1.09549 5.91123 1.00737 7.64245C0.91925 9.37366 1.47662 11.076 2.57156 12.4199C3.6665 13.7637 5.22113 14.6535 6.93445 14.917C8.64777 15.1804 10.3979 14.7988 11.846 13.846L17 19L19 17ZM3 7.99998C3 5.24298 5.243 2.99998 8 2.99998C10.757 2.99998 13 5.24298 13 7.99998C13 10.757 10.757 13 8 13C5.243 13 3 10.757 3 7.99998Z"/>
    </symbol>

    <symbol id="user"  viewBox="0 0 16 16">
        <path d="M8 0C9.06087 0 10.0783 0.421427 10.8284 1.17157C11.5786 1.92172 12 2.93913 12 4C12 5.06087 11.5786 6.07828 10.8284 6.82843C10.0783 7.57857 9.06087 8 8 8C6.93913 8 5.92172 7.57857 5.17157 6.82843C4.42143 6.07828 4 5.06087 4 4C4 2.93913 4.42143 1.92172 5.17157 1.17157C5.92172 0.421427 6.93913 0 8 0ZM8 10C12.42 10 16 11.79 16 14V16H0V14C0 11.79 3.58 10 8 10Z"/>
    </symbol>

    <symbol id="favorite" viewBox="0 0 17 15">
        <path d="M8.97342 2.59641C6.21857 -1.65888 0.642853 0.659263 0.642853 5.29469C0.642853 8.77555 8.28685 14.2205 8.97342 14.9285C9.66471 14.2205 16.9286 8.77555 16.9286 5.29469C16.9286 0.694406 11.7334 -1.65888 8.97342 2.59641Z"/>
    </symbol>

    <symbol id="youtube" viewBox="0 0 35 25">
        <path d="M33.8435 4.28559C33.6493 3.56414 33.269 2.90634 32.7407 2.37804C32.2124 1.84974 31.5546 1.46947 30.8332 1.27528C28.1763 0.556214 17.5001 0.556213 17.5001 0.556213C17.5001 0.556213 6.82381 0.556214 4.16694 1.27528C3.44549 1.46947 2.78769 1.84974 2.25939 2.37804C1.73109 2.90634 1.35082 3.56414 1.15662 4.28559C0.660527 6.99519 0.419785 9.74537 0.437563 12.5C0.419785 15.2545 0.660527 18.0047 1.15662 20.7143C1.35082 21.4358 1.73109 22.0936 2.25939 22.6219C2.78769 23.1502 3.44549 23.5305 4.16694 23.7246C6.82381 24.4437 17.5001 24.4437 17.5001 24.4437C17.5001 24.4437 28.1763 24.4437 30.8332 23.7246C31.5546 23.5305 32.2124 23.1502 32.7407 22.6219C33.269 22.0936 33.6493 21.4358 33.8435 20.7143C34.3396 18.0047 34.5803 15.2545 34.5626 12.5C34.5803 9.74537 34.3396 6.99519 33.8435 4.28559ZM14.0876 17.6187V7.38121L22.9479 12.5L14.0876 17.6187Z" />
    </symbol>

    <symbol id="vk" viewBox="0 0 36 22">
        <path d="M32.0436 15.1364C32.0436 15.1364 34.9542 18.011 35.6742 19.3412C35.6882 19.3603 35.6992 19.3816 35.7066 19.4042C36 19.8956 36.072 20.2808 35.928 20.5652C35.685 21.035 34.8624 21.2708 34.5834 21.2906H29.439C29.0808 21.2906 28.3356 21.197 27.4284 20.5706C26.7354 20.0864 26.046 19.289 25.3782 18.5096C24.381 17.3522 23.5188 16.3478 22.6458 16.3478C22.5356 16.3475 22.4261 16.3658 22.3218 16.4018C21.6612 16.6106 20.8224 17.552 20.8224 20.0594C20.8224 20.8442 20.2032 21.2906 19.7694 21.2906H17.4132C16.6104 21.2906 12.4308 21.0098 8.72464 17.102C4.18324 12.3176 0.10444 2.71995 0.06484 2.63535C-0.18896 2.01435 0.34384 1.67595 0.91984 1.67595H6.11464C6.81124 1.67595 7.03804 2.09715 7.19644 2.47515C7.38004 2.90895 8.06044 4.64415 9.17644 6.59355C10.9836 9.76515 12.0942 11.0558 12.9816 11.0558C13.1484 11.0562 13.3123 11.0128 13.4568 10.9298C14.616 10.2926 14.4 6.15255 14.346 5.29935C14.346 5.13375 14.3442 3.45075 13.7502 2.63715C13.3254 2.05395 12.6018 1.82715 12.1644 1.74435C12.2814 1.57515 12.5298 1.31595 12.8484 1.16295C13.6422 0.76695 15.0768 0.709351 16.5006 0.709351H17.2908C18.8352 0.730951 19.2348 0.82995 19.7964 0.97215C20.9268 1.24215 20.9484 1.97475 20.8494 4.46955C20.8206 5.18235 20.79 5.98515 20.79 6.93015C20.79 7.13175 20.781 7.35675 20.781 7.58535C20.7468 8.86515 20.7018 10.307 21.6054 10.8992C21.7226 10.9722 21.858 11.0108 21.996 11.0108C22.3092 11.0108 23.247 11.0108 25.7904 6.64575C26.9064 4.71795 27.7704 2.44455 27.8298 2.27355C27.8802 2.17815 28.0314 1.90995 28.215 1.80195C28.3456 1.73246 28.4919 1.69775 28.6398 1.70115H34.7508C35.4168 1.70115 35.8686 1.80195 35.9568 2.05395C36.1044 2.46255 35.928 3.70995 33.138 7.48275C32.6682 8.11095 32.256 8.65455 31.8942 9.12975C29.3652 12.449 29.3652 12.6164 32.0436 15.1364Z" />    
    </symbol>
    
    <symbol id="facebook" viewBox="0 0 16 31">
        <path d="M10.3283 30.1201V16.8016H14.9366L15.6216 11.587H10.3283V8.26547C10.3283 6.76072 10.7583 5.73047 12.9733 5.73047H15.78V1.08134C14.4144 0.938655 13.0417 0.869758 11.6683 0.87497C7.59497 0.87497 4.7983 3.29947 4.7983 7.75035V11.5772H0.219971V16.7918H4.8083V30.1201H10.3283Z" />
    </symbol>

    <symbol id="twitter" viewBox="0 0 31 26">
        <path d="M27.9975 0.575535L1.40252 10.831C-0.41248 11.56 -0.40198 12.5725 1.06952 13.024L7.89752 15.154L23.6955 5.18653C24.4425 4.73203 25.125 4.97653 24.564 5.47453L11.7645 17.026H11.7615L11.7645 17.0275L11.2935 24.0655C11.9835 24.0655 12.288 23.749 12.675 23.3755L15.9915 20.1505L22.89 25.246C24.162 25.9465 25.0755 25.5865 25.392 24.0685L29.9205 2.72654C30.384 0.868035 29.211 0.0265354 27.9975 0.575535Z" />
    </symbol>

    <symbol id="ello" viewBox="0 0 22 24">
        <path d="M7.564 2.445C7.564 2.12 7.597 1.925 8.154 1.925H15.619C16.919 1.925 17.639 3.035 18.159 5.118L18.579 6.784H19.849C20.079 2.056 20.279 0 20.279 0C20.279 0 17.083 0.36 15.189 0.36H5.64L0.526001 0.196V1.566L2.251 1.892C3.461 2.132 3.751 2.388 3.851 3.498C3.851 3.498 3.961 6.768 3.961 12.138C3.961 17.523 3.871 20.748 3.871 20.748C3.871 21.721 3.481 22.081 2.281 22.321L0.559001 22.651V24L5.689 23.835H14.239C16.174 23.835 20.629 24 20.629 24C20.734 22.83 21.379 17.52 21.484 16.936H20.284L19 19.846C17.995 22.126 16.524 22.291 14.89 22.291H9.984C8.354 22.291 7.569 21.651 7.569 20.241V12.8C7.569 12.8 11.189 12.8 12.359 12.896C13.271 12.96 13.822 13.221 14.119 14.494L14.509 16.189H15.919L15.829 11.911L16.021 7.606H14.63L14.18 9.496C13.897 10.74 13.7 10.966 12.426 11.096C10.76 11.266 7.611 11.236 7.611 11.236V2.45H7.561L7.564 2.445Z" />
    </symbol>

    <symbol id="play" viewBox="0 0 70 70">
        <path d="M35 0C15.6719 0 0 15.6719 0 35C0 54.3281 15.6719 70 35 70C54.3281 70 70 54.3281 70 35C70 15.6719 54.3281 0 35 0ZM46.2578 35.5391L29.1953 47.9531C29.1018 48.0203 28.9915 48.0605 28.8766 48.0691C28.7618 48.0777 28.6468 48.0545 28.5442 48.0021C28.4417 47.9496 28.3556 47.8699 28.2954 47.7716C28.2352 47.6734 28.2033 47.5605 28.2031 47.4453V22.6328C28.2027 22.5174 28.2343 22.4041 28.2944 22.3056C28.3544 22.207 28.4406 22.127 28.5434 22.0744C28.6461 22.0218 28.7614 21.9987 28.8765 22.0076C28.9916 22.0166 29.1019 22.0572 29.1953 22.125L46.2578 34.5312C46.3384 34.5883 46.4042 34.6638 46.4496 34.7515C46.4949 34.8391 46.5186 34.9364 46.5186 35.0352C46.5186 35.1339 46.4949 35.2312 46.4496 35.3189C46.4042 35.4065 46.3384 35.4821 46.2578 35.5391Z" />
    </symbol>

    <symbol id="pause" viewBox="0 0 70 70">
        <path class="st0" d="M35,0C15.7,0,0,15.7,0,35s15.7,35,35,35s35-15.7,35-35S54.3,0,35,0z M29.5,48.1h-3c-0.8,0-1.5-0.7-1.5-1.5v-23 c0-0.8,0.7-1.5,1.5-1.5h3c0.8,0,1.5,0.7,1.5,1.5v23C31,47.4,30.4,48.1,29.5,48.1z M43.5,48.1h-3c-0.8,0-1.5-0.7-1.5-1.5v-23 c0-0.8,0.7-1.5,1.5-1.5h3c0.8,0,1.5,0.7,1.5,1.5v23C45,47.4,44.4,48.1,43.5,48.1z"/>
    </symbol>

    <symbol id="newsletterArrow" viewBox="0 0 17 17">
        <path d="M11 8.5L7.25 10.6651L7.25 6.33494L11 8.5Z" fill="white"/>
        <path d="M4.75 2.00481L16 8.5L4.75 14.9952L4.75 2.00481Z" stroke="white" fill="none"/>
    </symbol>

    <symbol id="phone" viewBox="0 0 20 16">
        <path d="M17.256 10.253C17.16 9.586 16.645 9.066 15.982 8.911C13.405 8.307 12.759 6.823 12.65 5.177C12.193 5.092 11.38 5 10 5C8.62 5 7.807 5.092 7.35 5.177C7.241 6.823 6.595 8.307 4.018 8.911C3.355 9.067 2.84 9.586 2.744 10.253L2.247 13.695C2.072 14.907 2.962 16 4.2 16H15.8C17.037 16 17.928 14.907 17.753 13.695L17.256 10.253ZM10 13.492C8.605 13.492 7.474 12.372 7.474 10.992C7.474 9.612 8.605 8.492 10 8.492C11.395 8.492 12.526 9.612 12.526 10.992C12.526 12.372 11.394 13.492 10 13.492ZM19.95 4C19.926 2.5 16.108 0.001 10 0C3.891 0.001 0.0729981 2.5 0.0499981 4C0.0269981 5.5 0.0709982 7.452 2.585 7.127C5.526 6.746 5.345 5.719 5.345 4.251C5.345 3.227 7.737 2.98 10 2.98C12.263 2.98 14.654 3.227 14.655 4.251C14.655 5.719 14.474 6.746 17.415 7.127C19.928 7.452 19.973 5.5 19.95 4Z" />
    </symbol>

    <symbol id="mail" viewBox="0 0 18 12">
        <path d="M0.574002 1.286L8.074 5.315C8.326 5.45 8.652 5.514 8.98 5.514C9.308 5.514 9.634 5.45 9.886 5.315L17.386 1.286C17.875 1.023 18.337 0 17.44 0H0.521002C-0.375998 0 0.0860016 1.023 0.574002 1.286ZM17.613 3.489L9.886 7.516C9.546 7.694 9.308 7.715 8.98 7.715C8.652 7.715 8.414 7.694 8.074 7.516C7.734 7.338 0.941002 3.777 0.386002 3.488C-0.00399834 3.284 1.61606e-06 3.523 1.61606e-06 3.707V11C1.61606e-06 11.42 0.566002 12 1 12H17C17.434 12 18 11.42 18 11V3.708C18 3.524 18.004 3.285 17.613 3.489Z" />
    </symbol>

    <symbol id="cross" viewBox="0 0 365.696 365.696">
        <path d="m243.1875 182.859375 113.132812-113.132813c12.5-12.5 12.5-32.765624 0-45.246093l-15.082031-15.082031c-12.503906-12.503907-32.769531-12.503907-45.25 0l-113.128906 113.128906-113.132813-113.152344c-12.5-12.5-32.765624-12.5-45.246093 0l-15.105469 15.082031c-12.5 12.503907-12.5 32.769531 0 45.25l113.152344 113.152344-113.128906 113.128906c-12.503907 12.503907-12.503907 32.769531 0 45.25l15.082031 15.082031c12.5 12.5 32.765625 12.5 45.246093 0l113.132813-113.132812 113.128906 113.132812c12.503907 12.5 32.769531 12.5 45.25 0l15.082031-15.082031c12.5-12.503906 12.5-32.769531 0-45.25zm0 0" />
    </symbol>
</svg>